{"title":"Prenom Carmen / First Name Carmen (Jean-Luc Godard 1983)","uid":9352356,"size":1432116718,"categoryP":"video","categoryS":"movies","magnet":"?xt=urn:btih:017283aa7f0d4c6c83a2f6a6dc949aedde098598&amp;dn=Prenom+Carmen+%2F+First+Name+Carmen+%28Jean-Luc+Godard+1983%29&amp;tr=udp%3A%2F%2Ftracker.openbittorrent.com%3A80&amp;tr=udp%3A%2F%2Fopen.demonii.com%3A1337&amp;tr=udp%3A%2F%2Ftracker.coppersurfer.tk%3A6969&amp;tr=udp%3A%2F%2Fexodus.desync.com%3A6969","seeders":6,"leechers":4,"uploader":"moonflux","files":2,"time":1387156970,"description":" Carmen is a member of a terrorist gang who falls in love with a young police officer guarding a bank that she and her cohorts try to rob. She leads him on while dragging the two of them closer to their ultimate doom. Jean-Luc Godard intercuts the film with shots of a string quartet practicing Beethoven.\n\nGeneral\nUnique ID : 120199063396654943247964863442446380787 (0x5A6D7F5F53293E4654780B99D6A2EEF3)\nComplete name : First.Name.Carmen.1983.DVDRip.x264-CG/Prenom Carmen 1983.mkv\nFormat : Matroska\nFile size : 1.33 GiB\nDuration : 1h 24mn\nOverall bit rate : 2 256 Kbps\nMovie name : Done with AutoMKV 0.98.4 http://forum.doom9.org/showthread.php?t=140178\nWriting application : AVI-Mux GUI 1.17.8, Aug 30 2008 12:36:58\nWriting library : matroska muxer by Alexander Noe, build date Aug 30 2008\n\nVideo\nID : 1\nFormat : AVC\nFormat/Info : Advanced Video Codec\nFormat profile : &lt;a class=&quot;__cf_email__&quot; href=&quot;/cdn-cgi/l/email-protection&quot; data-cfemail=&quot;bcf4d5dbd4fcf088928c&quot;&gt;[email&amp;#160;protected]&lt;/a&gt;&lt;script data-cfhash='f9e31' type=&quot;text/javascript&quot;&gt;\n/* &lt;![CDATA[ */!function(){try{var t=&quot;currentScript&quot;in document?document.currentScript:function(){for(var t=document.getElementsByTagName(&quot;script&quot;),e=t.length;e--;)if(t[e].getAttribute(&quot;data-cfhash&quot;))return t[e]}();if(t&amp;&amp;t.previousSibling){var e,r,n,i,c=t.previousSibling,a=c.getAttribute(&quot;data-cfemail&quot;);if(a){for(e=&quot;&quot;,r=parseInt(a.substr(0,2),16),n=2;a.length-n;n+=2)i=parseInt(a.substr(n,2),16)^r,e+=String.fromCharCode(i);e=document.createTextNode(e),c.parentNode.replaceChild(e,c)}t.parentNode.removeChild(t);}}catch(u){}}()/* ]]&gt; */&lt;/script&gt;\nFormat settings, CABAC : Yes\nFormat settings, ReFrames : 6 frames\nCodec ID : V_MPEG4/ISO/AVC\nDuration : 1h 24mn\nBit rate : 2 061 Kbps\nWidth : 720 pixels\nHeight : 480 pixels\nDisplay aspect ratio : 4:3\nOriginal display aspect ratio : 3:2\nFrame rate : 23.976 fps\nStandard : NTSC\nColor space : YUV\nChroma subsampling : 4:2:0\nBit depth : 8 bits\nScan type : Progressive\nBits/(Pixel*Frame) : 0.249\nStream size : 1.19 GiB (89%)\nWriting library : x264 core 66 r1092 60f4cd8\nEncoding settings : cabac=1 / ref=6 / deblock=1:-1:-1 / analyse=0x3:0x113 / me=umh / subme=7 / psy_rd=1.0:1.0 / mixed_ref=1 / me_range=16 / chroma_me=1 / trellis=2 / 8x8dct=1 / cqm=0 / deadzone=21,11 / chroma_qp_offset=-4 / threads=3 / nr=0 / decimate=1 / mbaff=0 / bframes=6 / b_pyramid=1 / b_adapt=2 / b_bias=0 / direct=3 / wpredb=1 / keyint=250 / keyint_min=25 / scenecut=40(pre) / rc=2pass / bitrate=2061 / ratetol=1.0 / qcomp=0.60 / qpmin=10 / qpmax=51 / qpstep=4 / cplxblur=20.0 / qblur=0.5 / vbv_maxrate=25000 / vbv_bufsize=14000 / ip_ratio=1.40 / pb_ratio=1.30 / aq=1:1.00\nLanguage : English\n\nAudio\nID : 2\nFormat : AC-3\nFormat/Info : Audio Coding 3\nMode extension : CM (complete main)\nCodec ID : A_AC3\nDuration : 1h 24mn\nBit rate mode : Constant\nBit rate : 192 Kbps\nChannel(s) : 2 channels\nChannel positions : Front: L R\nSampling rate : 48.0 KHz\nBit depth : 16 bits\nCompression mode : Lossy\nStream size : 116 MiB (9%)\nTitle : Original\nLanguage : French\n","torrent":{"xt":"urn:btih:017283aa7f0d4c6c83a2f6a6dc949aedde098598","amp;dn":"Prenom+Carmen+%2F+First+Name+Carmen+%28Jean-Luc+Godard+1983%29","amp;tr":["udp%3A%2F%2Ftracker.openbittorrent.com%3A80","udp%3A%2F%2Fopen.demonii.com%3A1337","udp%3A%2F%2Ftracker.coppersurfer.tk%3A6969","udp%3A%2F%2Fexodus.desync.com%3A6969"],"infoHash":"017283aa7f0d4c6c83a2f6a6dc949aedde098598","infoHashBuffer":{"type":"Buffer","data":[1,114,131,170,127,13,76,108,131,162,246,166,220,148,154,237,222,9,133,152]},"announce":[],"urlList":[]}}